<svg id="blog-section-misc.svg" xmlns="http://www.w3.org/2000/svg" width="23.719" height="24" viewBox="0 0 23.719 24">
  <defs>
    <style>
      .cls-1 {
        fill: #41bb9c;
      }

      .cls-1, .cls-2 {
        fill-rule: evenodd;
      }

      .cls-2 {
        fill: #c86bc0;
      }
    </style>
  </defs>
  <path class="cls-1" d="M263,2407h5a2,2,0,0,1,2,2v6a2,2,0,0,1-2,2h-5a2,2,0,0,1-2-2v-6A2,2,0,0,1,263,2407Zm-5.406-3h-10.2a0.4,0.4,0,0,1-.348-0.21,0.441,0.441,0,0,1,0-.42l5.1-9.18a0.408,0.408,0,0,1,.7,0l5.1,9.18a0.435,0.435,0,0,1,0,.42A0.4,0.4,0,0,1,257.594,2404Z" transform="translate(-247 -2394)"/>
  <path class="cls-2" d="M251.9,2408.37a2.93,2.93,0,0,0,.983,2.14,2.821,2.821,0,0,0,0-4.28A2.93,2.93,0,0,0,251.9,2408.37Zm0,7.49a2.93,2.93,0,0,0,.983,2.14,2.821,2.821,0,0,0,0-4.28A2.93,2.93,0,0,0,251.9,2415.86Zm-1.741-6.5a2.93,2.93,0,0,0,1.921,1.36,2.815,2.815,0,0,0-2.14-3.7A2.919,2.919,0,0,0,250.162,2409.36Zm3.745,6.49a2.933,2.933,0,0,0,1.921,1.36,2.82,2.82,0,0,0-2.14-3.71A2.947,2.947,0,0,0,253.907,2415.85Zm-4.756-4.76a1.3,1.3,0,1,0-1.362-1.92A2.944,2.944,0,0,0,249.151,2411.09Zm6.487,3.75a1.3,1.3,0,1,0,.983-1.71,2.9,2.9,0,0,0-2.345-.21A2.937,2.937,0,0,0,255.638,2414.84Zm-6.5-1.74a1.3,1.3,0,1,0-2.14-.99A2.939,2.939,0,0,0,249.141,2413.1Zm7.49,0a1.3,1.3,0,1,0-2.14-.99A2.937,2.937,0,0,0,256.631,2413.1Zm-6.5,1.74a2.937,2.937,0,0,0,1.362-1.92,2.9,2.9,0,0,0-2.345.21A1.3,1.3,0,1,0,250.134,2414.84Zm6.487-3.75a1.3,1.3,0,1,0-2.345.22A2.937,2.937,0,0,0,256.621,2411.09Zm-4.756,4.76a2.943,2.943,0,0,0,.218-2.35,2.821,2.821,0,0,0-2.14,3.71A2.935,2.935,0,0,0,251.865,2415.85Zm3.745-6.49a2.919,2.919,0,0,0,.218-2.34,2.817,2.817,0,0,0-2.14,3.7A2.935,2.935,0,0,0,255.61,2409.36Zm-2.691-.32a3.11,3.11,0,1,1-3.11,3.11A3.109,3.109,0,0,1,252.919,2409.04Zm12.581-14.76a5.22,5.22,0,1,1-5.221,5.22A5.223,5.223,0,0,1,265.5,2394.28Z" transform="translate(-247 -2394)"/>
</svg>
