<svg fill="none" height="401" viewBox="0 0 1040 401" width="1040" xmlns="http://www.w3.org/2000/svg" xmlns:xlink="http://www.w3.org/1999/xlink"><clipPath id="a"><path d="m0 .994995h1040v400h-1040z"/></clipPath><mask id="b" height="86" maskUnits="userSpaceOnUse" width="86" x="751" y="107"><path d="m793.542 192.882c-23.472 0-42.5-19.028-42.5-42.5s19.028-42.5 42.5-42.5 42.5 19.028 42.5 42.5-19.028 42.5-42.5 42.5z" fill="#eb7100"/></mask><mask id="c" height="91" maskUnits="userSpaceOnUse" width="151" x="334" y="262"><path d="m334.067 262.254h150.818v90.2295h-150.818z" fill="#c4c4c4"/></mask><g clip-path="url(#a)"><path d="m0 0h1040v400h-1040z" fill="#ffd480" transform="translate(0 .994995)"/><g stroke="#051627"><path d="m820.907 316.888c.9-18.6 7.8-14.6 2.3-38s-11.2-35.2-12.1-42c-1-6.8 4.5-16.9 14-23.1 9.4-6.2 17.5-11.6 17.5-11.6s.2-4.3 5.8-8c5.5-3.7 11.2-4.9 18.2-1.2 7 3.6 6 7 6 7s1.7-4.7 10.6-2.2c9.1 2.5 10.6 11.5 10.6 11.5s3.9-3.3 11.5 1.2c7.6 4.4 3.5 15.3 3.5 15.3s4.9-1.5 9.2 3.6c4.2 5.1.4 14.9.1 18.9-.3 4.1-6.7 17.2-9.1 23.1-2.5 5.9-13 24-18.7 31.4-5.7 7.5-11.976 31.623-11.976 49.695h-66.824c1.481-3.26 8.3-9.695 9.4-35.595z" fill="#ffd480" stroke-linecap="round" stroke-linejoin="round" stroke-miterlimit="10" stroke-width="1.2"/><path d="m831.642 234.882c.5.1 8.4.3 13.1-5.6l4.2-2.5" stroke-linecap="round" stroke-linejoin="round" stroke-miterlimit="10" stroke-width="1.2"/><path d="m846.042 216.582s-4.1 8.5 8.1 13.3c12.3 4.7 18.9 4.1 22.1 2.7s6-7.2 4.1-10.2c-1.9-2.9-13.3-11-16.2-14.7-2.8-3.8-5.5-10.1-10.7-10.6-5.1-.5-10.6 4.6-10.6 4.6" stroke-linecap="round" stroke-linejoin="round" stroke-miterlimit="10" stroke-width="1.2"/><path d="m844.742 229.282s-6.7 1.5-14.1-3.8" stroke-linecap="round" stroke-linejoin="round" stroke-miterlimit="10" stroke-width="1.2"/><path d="m872.742 199.082c-.1.3-3.5 12.9-3.5 12.9" stroke-linecap="round" stroke-linejoin="round" stroke-miterlimit="10" stroke-width="1.2"/><path d="m825.742 289.682c.5.3 8.7 6.5 19.9 5.3" stroke-linecap="round" stroke-linejoin="round" stroke-miterlimit="10" stroke-width="1.2"/><path d="m883.571 317.291s-13.7-1-19.4-6" stroke-linecap="round" stroke-linejoin="round" stroke-miterlimit="10" stroke-width="1.2"/><path d="m848.942 226.882s-8.9 5.4 4.5 18.1 17.9 34.7 5.5 45.4" stroke-linecap="round" stroke-linejoin="round" stroke-miterlimit="10" stroke-width="1.2"/><path d="m848.942 239.782s5.6 6.6 10.3.2c2.6-3.5 2.7-7.4 2.7-7.4" stroke-linecap="round" stroke-linejoin="round" stroke-miterlimit="10" stroke-width="1.2"/><path d="m893.742 208.882s-9.8 26.8-19.9 38c0 0-11.1 8.7-15.9-5" stroke-linecap="round" stroke-linejoin="round" stroke-miterlimit="10" stroke-width="1.2"/></g><path d="m869.042 211.682s-5.6 3.9-5.6 10.4c0 0 9.6 9.5 14.9 10.7 5.4 1.2 7.6-.6 7.9-2.4s-2.7-5.8-5.3-8.4c-3.6-3.9-11.9-10.3-11.9-10.3z" fill="#051627"/><path d="m908.742 225.482s-4.1 12.3-6.3 15.8c-2.4 4-14.2 14.6-18.8 15.6-6.3 1.3-10-9.9-10-9.9" stroke="#051627" stroke-linecap="round" stroke-linejoin="round" stroke-miterlimit="10" stroke-width="1.2"/><path d="m888.942 254.182s-1.5 5.7 6.5 7.8c0 0 16.4-.8 24.3-21.9" stroke="#051627" stroke-linecap="round" stroke-linejoin="round" stroke-miterlimit="10" stroke-width="1.2"/><path d="m838.142 234.182 71.2 76.9c3.6 3.9 9.6 4.3 13.7.9l5.5-4.6c4.1-3.4 4.8-9.4 1.7-13.7l-25.7-34.7s-3.2 3.8-10.6 2.2c-5.1-1.1-4.9-7.5-4.9-7.5s-3 5.3-10.2 1.7c-3-1.5-4.7-8.4-5-8.3-11.4 7.7-15.8-5.1-15.8-5.1s-16.5.7-8.4-15.4z" fill="#051627"/><path d="m793.542 192.882c-23.472 0-42.5-19.028-42.5-42.5s19.028-42.5 42.5-42.5 42.5 19.028 42.5 42.5-19.028 42.5-42.5 42.5z" fill="#cc4e00"/><path clip-rule="evenodd" d="m836.042 148.282c-2.8 6.8-7.3 13-13.3 18-19.9 16.5-49.5 13.7-66-6.2-2.3-2.7-4.2-5.6-5.7-8.7.2 9.2 3.4 18.5 9.8 26.1 15 18.1 41.8 20.6 59.9 5.6 10.7-8.8 15.9-21.9 15.3-34.8z" fill="#051627" fill-rule="evenodd"/><g style="mask:url(#b);stroke:#051627;stroke-width:1.2;stroke-miterlimit:10;stroke-linecap:round;stroke-linejoin:round"><path d="m709.342 139.082 79.5 96"/><path d="m782.242 234.482 96-79.5"/><path d="m720.442 129.882 79.5 96"/><path d="m773.042 223.382 96-79.5"/><path d="m731.542 120.682 79.5 96"/><path d="m763.942 212.282 96-79.5"/><path d="m742.642 111.482 79.5 96"/><path d="m754.742 201.182 96-79.5"/><path d="m753.742 102.382 79.5 96"/><path d="m745.542 190.082 96-79.5"/><path d="m764.942 93.1818 79.5 96.0002"/><path d="m736.342 178.982 96-79.5002"/><path d="m776.042 83.9818 79.5 96.0002"/><path d="m727.142 167.882 96-79.5002"/><path d="m787.142 74.7818 79.5 96.0002"/><path d="m717.942 156.782 96-79.5002"/><path d="m798.242 65.5818 79.5 96.0002"/><path d="m708.742 145.682 96-79.5002"/></g><path d="m785.842 190.582 49.1-40.7c3.8-3.2 9.5-2.6 12.7 1.2l17.3 20.9c3.2 3.8 2.6 9.5-1.2 12.7l-49.1 40.7c-3.8 3.2-9.5 2.6-12.7-1.2l-17.3-20.9c-3.2-3.8-2.6-9.5 1.2-12.7z" style="fill:#ffd480;stroke:#051627;stroke-width:1.2;stroke-miterlimit:10;stroke-linecap:round;stroke-linejoin:round"/><path d="m398.11 206.786h243.78v145.463h-243.78z" style="fill:#ffd480;stroke:#051627;stroke-width:1.2;stroke-miterlimit:10;stroke-linecap:round;stroke-linejoin:round"/><path d="m431.382 241.894h177.236v110.355h-177.236z" style="fill:#ffd480;stroke:#051627;stroke-width:1.2;stroke-miterlimit:10;stroke-linecap:round;stroke-linejoin:round"/><path d="m398.11 182.151h243.78v24.6344h-243.78z" style="fill:#ffd480;stroke:#051627;stroke-width:1.2;stroke-miterlimit:10;stroke-linecap:round;stroke-linejoin:round"/><path d="m631.633 196.449c-12.592-3.983-14.518-10.778-21.421-15.24l14.578-22.911c9.043 1.023 15.603 23.809 16.15 23.736.9-.212-8.541 14.592-9.307 14.415z" fill="#ffd480"/><path d="m756.524 335.014c-11.752-18.953-54.139-116.979-58.707-131.773-11.019-35.368-6.208-57.07-13.318-65.866-12.172-8.024-35.853-20.589-44.794-25.664-13.909-4.273-50.021 6.929-55.735 11.401-5.817 4.394-4.506 12.848 6.756 14.503 11.365 1.734 16.793-2.793 16.793-2.793l54.917 81.77 11.042 117.752z" style="fill:#ffe9bc;stroke:#051627;stroke-width:1.2;stroke-miterlimit:10;stroke-linecap:round;stroke-linejoin:round"/><path d="m477.196 175.141h141.604v67.4672h-141.604z" fill="#cc4e00" transform="matrix(.73717474 -.67570215 .67570215 .73717474 7.07601 368.473842)"/><path clip-rule="evenodd" d="m572.375 98.0823-75.497 69.2017c4.824 5.264 4.562 13.356-.586 18.075l17.957 19.59c5.149-4.719 13.234-4.277 18.059.987l.001.001 75.496-69.201v-.001c-4.826-5.264-4.563-13.358.586-18.077v-.001l-17.956-19.5894c0 .0002 0 .0004-.001.0006-5.148 4.7188-13.233 4.2778-18.059-.9859z" fill="#ffd480" fill-rule="evenodd"/><circle cx="551.835" cy="151.787" fill="#cc4e00" r="18.7498" transform="matrix(.73717474 -.67570215 .67570215 .73717474 42.473373 412.769553)"/><circle cx="520.562" cy="180.453" fill="#ffe9bc" r="9.32269" transform="matrix(.73717474 -.67570215 .67570215 .73717474 14.884361 399.172469)"/><circle cx="583.109" cy="123.122" fill="#ffe9bc" r="9.32269" transform="matrix(.73717474 -.67570215 .67570215 .73717474 70.061972 426.367577)"/><path d="m613.764 147.28s-10.064 11.507-13.019 18.581-.968 11.542 4.1 13.372c5.069 1.83 7.063.08 10.564-2.892 3.525-2.789 9.486-7.282 9.486-7.282" fill="#ffe9bc"/><path d="m623.564 169.785s-15.971 6.655-15.019 19.811c.983 5.993 7.11 7.404 11.449 5.156 4.34-2.248 7.51-2.954 7.51-2.954" fill="#ffe9bc"/><path d="m611.888 149.903s-8.188 8.884-11.143 15.958-.968 11.542 4.1 13.372c5.069 1.83 7.063.08 10.564-2.892 3.525-2.789 7.373-6.641 7.373-6.641" stroke="#051627" stroke-linecap="round" stroke-linejoin="round" stroke-miterlimit="10" stroke-width="1.2"/><path d="m610.85 179.732s-3.289 3.871-2.305 9.864c.983 5.993 7.11 7.404 11.449 5.156 4.968-2.574 5.57-2.225 5.57-2.225" stroke="#051627" stroke-linecap="round" stroke-linejoin="round" stroke-miterlimit="10" stroke-width="1.2"/><path d="m625.565 176.659c-1.237 15.103 1.224 21.734 2.627 23.218 1.848 2.723 9.116 7.136 23.186 3.407 17.566-4.659 10.629-28.88 9.134-30.351-26.646-26.606-32.544-49.295-38.275-54.007-5.73-4.711-17.053-2.646-17.578 10.135-.434 12.769 22.477 28.739 20.906 47.598z" fill="#ffd480"/><path d="m666.249 174.21s-19.818-8.773-33.852-40.306c-6.215-13.926-14.073-20.673-21.519-15.97-10.351 6.574-5.777 17.934 2.955 31.246 8.731 13.312 11.665 26.999 10.939 40.364 2.695 20.239 19.03 33.491 36.095 44.58 10.872 7.088 22.318 31.729 22.318 31.729" fill="#ffe9bc"/><path d="m666.249 174.21s-19.818-8.773-33.852-40.306c-6.215-13.926-14.073-20.673-21.519-15.97-10.351 6.574-5.777 17.934 2.955 31.246 8.731 13.312 11.58 25.898 11.58 40.223 0 19.408 21.709 36.555 35.911 44.176 3.412 1.831 3.129 5.697 3.129 5.697" stroke="#051627" stroke-linecap="round" stroke-linejoin="round" stroke-miterlimit="10" stroke-width="1.2"/><path d="m609.077 130.885c-2.139-3.519-.977-8.035 2.463-10.07 3.52-2.139 8.035-.977 10.071 2.463l5.468 9.014-12.624 7.619z" fill="#051627"/><path d="m647.22 151.378c6.013 3.078 15.565 3.702 23.736.545" stroke="#000" stroke-linecap="round" stroke-linejoin="round"/><path d="m654.956 157.521c-2.903-6.995-9.746-4.988-18.725-16.576 9.823 19.339 21.851 28.511 22.443 28.511.638-.442-2.718-9.526-3.718-11.935z" fill="#051627"/><path d="m476.976 194.011h86.6325v44.8361h-86.6325z" fill="#ffd480"/><path d="m460.97 194.469h118.06" stroke="#051627" stroke-linecap="round" stroke-linejoin="round" stroke-miterlimit="10" stroke-width="1.2"/><path d="m460.97 206.786h118.06" stroke="#051627" stroke-linecap="round" stroke-linejoin="round" stroke-miterlimit="10" stroke-width="1.2"/><path d="m743.546 311.004-10.87-24.532c2.84 0 9.469.559 13.268 2.793 4.748 2.793 6.95 4.492 6.95 8.821 0 3.464-6.229 11.149-9.348 12.918z" fill="#051627"/><path d="m660.016 319.889c.097.43.162.967.166 1.58 1.21 5.988 9.715 16.978 47.525 6.26 33.189-9.408 42.575-27.222 43.119-34.952 6.207 3.919 18.424 14.373 17.64 24.826-.98 13.066 7.96 12.214 18.589 17.794 9.609 5.045 9.163 11.992 6.013 16.531h-142.623c-5.553-7.186-4.476-15.706 3.363-20.279 5.145-3.002 6.392-7.381 6.374-10.18-.118-.582-.166-1.117-.166-1.58z" fill="#cc4e00"/><path d="m772.353 329.611c-5.108 5.226-22.281 12.393-37.819 13.818" stroke="#051627" stroke-linecap="round" stroke-linejoin="round" stroke-miterlimit="10" stroke-width="1.2"/><path d="m674.156 332.004-3.636-29.38c-4.139 3.245-12.152 11.851-10.24 19.619 1.912 7.767 9.763 9.555 13.876 9.761z" fill="#051627"/><path d="m339.091 145.02s13.68-3.299 22.498-2.513c8.817.786 17.053-.129 19.36-5.191 2.451-7.401-12.13-6.919-22.882-9.894-10.752-2.974-17.577 2.449-21.892 5.111-4.314 2.662 2.916 12.487 2.916 12.487z" style="fill:#ffe9bc;stroke:#051627;stroke-width:1.2;stroke-miterlimit:10;stroke-linecap:round;stroke-linejoin:round"/><circle cx="402.401" cy="130.059" fill="#cc4e00" r="27.3803" transform="matrix(.78484343 -.61969411 .61969411 .78484343 5.982422 277.348576)"/><circle cx="402.401" cy="130.059" fill="#ffd480" r="19.8523" transform="matrix(.78484343 -.61969411 .61969411 .78484343 5.982422 277.348576)"/><path d="m357.603 111.742s2.088-4.021 7.636-9.838c5.548-5.8179 9.559-12.1851 7.269-16.6883-2.29-4.5033-9.803 5.5958-18 11.5493-8.198 5.954-15.765 15.6-16.316 20.17-.552 4.571 19.411-5.193 19.411-5.193z" style="fill:#ffe9bc;stroke:#051627;stroke-width:1.2;stroke-miterlimit:10;stroke-linecap:round;stroke-linejoin:round"/><path d="m337.546 122.991s12.186-23.1646 17.734-28.982c5.548-5.8175 9.559-12.1846 7.269-16.6879s-12.067 2.8358-18.686 10.4372c-13.5 15.3257-16.217 12.6207-28.08 50.6377-1.581 4.419 21.763-15.405 21.763-15.405z" style="fill:#ffe9bc;stroke:#051627;stroke-width:1.2;stroke-miterlimit:10;stroke-linecap:round;stroke-linejoin:round"/><path d="m397.792 127.463c4.645 3.589 1.909 10.877-.446 15.427-3.542 6.841-11.657 16.998-13.888 31.097-4.136 26.142-10.723 36.04-25.91 48.813-15.187 12.772-15.487 129.728-15.487 129.728h-73.621s37.371-117.166 39.11-137.782-.993-57.211-.605-66.174c.457-9.155 34.456-35.137 42.308-37.097 7.852-1.959 33.015-4.438 33.247-.237 0 0-5.314 4.863-6.989 13.958-10.844.022-22.532 1.915-28.725 7.719-6.001 5.872-13.904 27.968-8.869 33.886 5.104 5.726 16.232 13.391 21.646 1.89 5.482-11.692 10.753-24.994 18.476-33.594 6.02-6.703 12.83-12.985 19.753-7.634z" fill="#ffe9bc"/><path d="m382.418 110.64c-5.369-1.94-25.598-.945-33.451 1.014-7.852 1.959-41.85 27.942-42.307 37.097-.389 8.963 2.343 45.557.604 66.174-1.739 20.616-38.983 137.485-38.983 137.485h73.979s-.185-116.659 15.002-129.432c15.187-12.772 21.775-22.67 25.91-48.812 2.231-14.1 10.346-24.256 13.888-31.098 2.355-4.549 5.091-11.837.447-15.427-6.924-5.35-13.733.932-19.753 7.635-7.724 8.599-12.995 21.902-18.477 33.594-5.413 11.5-16.542 3.836-21.645-1.89-5.035-5.919 2.867-28.014 8.869-33.887 6.193-5.803 17.579-7.339 28.422-7.362" stroke="#051627" stroke-linecap="round" stroke-linejoin="round" stroke-miterlimit="10" stroke-width="1.2"/><path d="m386.532 133.836c2.293-3.197 7.074-4.401 10.151-2.139 3.503 2.577 1.715 6.109.086 10.731l-4.746 7.908-11.414-8.395z" fill="#ffd480"/><path d="m331.122 301.465-18.067 9.939s-8.155-3.912-7.325-10.312c0 0-6.795-2.675-6.002-11.322s7.327-10.534 7.327-10.534-1.026-8.03 6.549-11.029l19.339 11.794" stroke="#051627" stroke-linecap="round" stroke-linejoin="round" stroke-miterlimit="10" stroke-width="1.2"/><path d="m328.277 294.052-21.116-4.248 21.767-1.366z" fill="#051627"/><path d="m331.823 279.276-18.467-11.265s-.78-9.004 5.232-11.506c0 0-1.076-7.303 6.797-10.832 7.907-3.623 12.816 1.028 12.816 1.028s4.785-3.419 10.622-1.562" stroke="#051627" stroke-linecap="round" stroke-linejoin="round" stroke-miterlimit="10" stroke-width="1.2"/><path d="m337.946 277.347-7.097-20.334 12.186 18.03z" fill="#051627"/><path d="m331.122 301.464-17.879 10.008s-1.844 8.905 3.833 12.025c0 0-1.923 7.068 5.361 11.622 7.285 4.554 12.859.618 12.859.618s1.849 3.116 6.377 2.948" stroke="#051627" stroke-linecap="round" stroke-linejoin="round" stroke-miterlimit="10" stroke-width="1.2"/><path d="m337.39 306.182-9.283 18.866 14.249-16.428z" fill="#051627"/><path d="m343.227 307.978c-8.937-.579-15.414-8.244-14.962-17.121.579-8.938 7.842-15.772 16.779-15.193" stroke="#051627" stroke-linecap="round" stroke-linejoin="round" stroke-miterlimit="10" stroke-width="1.2"/><path d="m344.004 299.963c-4.486-.243-7.865-4.126-7.622-8.612.242-4.485 4.126-7.864 8.611-7.622z" fill="#051627"/><path d="m186.6 168.305s-2.4-2.8-12.4 3.9c-9.9 6.7-26 20.8-30.3 21s-22.7 7.3-20.1 19.3 27.5 74.6 26.6 101.7c-.9 27 0 38.278 0 38.278h56.524s-5.724-10.378-8.424-28.378-4.7-28.3 2.1-39 13.6-29.9 15.1-42.5 2.6-27 4.4-34.3c1.9-7.3-.7-11.9-2.4-18.6s-2.1-17.4-8.3-17.4c-7.7-.1-12.6 10.2-12.6 10.2-.3-1.2-5.9-11.7-10.2-14.2z" style="fill:#ffd480;stroke:#051627;stroke-width:1.2;stroke-miterlimit:10;stroke-linecap:round;stroke-linejoin:round"/><path d="m196.8 182.405s-1.5 4.9-1.9 15.9c-.3 11-4.3 26.3-9 28.1-4.6 1.7-4.5-1.2-6.7-2.9s-14.1-9-25.1-9.8" stroke="#051627" stroke-linecap="round" stroke-linejoin="round" stroke-miterlimit="10" stroke-width="1.2"/><path d="m170.3 218.405s.4-2.8.6-3.2 4.3-5.1 4.9-8.1c0 0 3.2 3.4 5.9.7v2s-2.6 2.2-1.4 14.8c0-.1-6.8-5.5-10-6.2z" fill="#051627"/><path d="m186 182.305s.1 11.4-4.3 17.3c-2.5 3.3-7.5 4.2-11.4 4.3-3.1.1-5.4-.3-5.4-.3" stroke="#051627" stroke-linecap="round" stroke-linejoin="round" stroke-miterlimit="10" stroke-width="1.2"/><path d="m168.9 203.905c.6 2.5.4 8.4-4.8 11.9" stroke="#000" stroke-width="1.2"/><path d="m192.9 203.005s-8.9 4.2-11.2-3.4" stroke="#051627" stroke-linecap="round" stroke-linejoin="round" stroke-miterlimit="10" stroke-width="1.2"/><path d="m180.3 224.505s-3-10.5 4-21.3" stroke="#051627" stroke-linecap="round" stroke-linejoin="round" stroke-miterlimit="10" stroke-width="1.2"/><path d="m175.4 206.005.6 2.5" stroke="#051627" stroke-linecap="round" stroke-linejoin="round" stroke-miterlimit="10" stroke-width="1.2"/><path d="m202 185.105c-.4 0 1-10.2 2.8-13.5s3.7-6.1 7.9-4.9c4.1 1.2 4.8 17.3 4 22.8 0 0-2.6-4.9-14.7-4.4z" fill="#cc4e00"/><path d="m201.9 203.205s6.2 3.3 13.6 3.3" stroke="#051627" stroke-linecap="round" stroke-linejoin="round" stroke-miterlimit="10" stroke-width="1.2"/><path d="m145.2 192.905s-14.9 8.8-14.9 15.6 4.9 13.1 4.9 13.1" stroke="#051627" stroke-linecap="round" stroke-linejoin="round" stroke-miterlimit="10" stroke-width="1.2"/><path d="m182 226.905c.2-.3-10.2-.9-15.2 1.9" stroke="#051627" stroke-linecap="round" stroke-linejoin="round" stroke-miterlimit="10" stroke-width="1.2"/><path d="m141.2 352.483v-31.178s20.7-12.5 55.4-17.5l16.965 48.678z" fill="#051627"/><path d="m160.4 168.405-14.2-5.8" stroke="#051627" stroke-linecap="round" stroke-linejoin="round" stroke-miterlimit="10" stroke-width="1.2"/><path d="m168 163.805-9.6-19.9" stroke="#051627" stroke-linecap="round" stroke-linejoin="round" stroke-miterlimit="10" stroke-width="1.2"/><path d="m186.1 327.105c4.3 0 7.8-3.5 7.8-7.8s-3.5-7.8-7.8-7.8-7.8 3.5-7.8 7.8 3.4 7.8 7.8 7.8z" fill="#ffe9bc" stroke="#051627" stroke-miterlimit="10" stroke-width="1.2"/><path d="m185.8 318.305c.9 0 1.7-.8 1.7-1.7s-.8-1.7-1.7-1.7-1.7.8-1.7 1.7.7 1.7 1.7 1.7z" fill="#051627"/><path d="m186.5 323.605c.9 0 1.7-.8 1.7-1.7s-.8-1.7-1.7-1.7-1.7.8-1.7 1.7.7 1.7 1.7 1.7z" fill="#051627"/><g mask="url(#c)"><rect height="73.4354" rx="8" style="fill:#ffd480;stroke:#051627;stroke-width:1.2;stroke-miterlimit:10;stroke-linecap:round;stroke-linejoin:round" transform="matrix(.58721748 -.8094292 .8094292 .58721748 -168.298571 432.813717)" width="123.725" x="340.205" y="381.416"/><path d="m343.452 377.954 69.548-95.866s-38.278 43.362 18.737 51.94c52.753 7.936-29.796 86.358-29.796 86.358z" fill="#cc4e00"/><path d="m351.083 389.718h124.058v13.3896h-124.058z" fill="#051627" transform="matrix(.58721748 -.8094292 .8094292 .58721748 -170.528204 445.045608)"/></g><path d="m486.101 275.235h49.1951v13.6284h-49.1951z" fill="#ffe9bc"/><path d="m513.418 293.472h40.4805v13.6284h-40.4805z" fill="#ffe9bc"/><path d="m486.101 311.71h67.7977v13.6284h-67.7977z" fill="#ffe9bc"/><path d="m539.973 275.235h13.926v13.6284h-13.926z" fill="#cc4e00"/><path d="m59.65 352.483h920.7" stroke="#051627" stroke-linecap="round" stroke-linejoin="round" stroke-miterlimit="10" stroke-width="1.2"/></g></svg>